<?xml version="1.0" standalone="no"?>
<!DOCTYPE svg PUBLIC "-//W3C//DTD SVG 20010904//EN"
 "http://www.w3.org/TR/2001/REC-SVG-20010904/DTD/svg10.dtd">
<svg version="1.0" xmlns="http://www.w3.org/2000/svg"
 width="860.000000pt" height="384.000000pt" viewBox="0 0 860.000000 384.000000"
 preserveAspectRatio="xMidYMid meet">

<g transform="translate(0.000000,384.000000) scale(0.100000,-0.100000)"
fill="#000000" stroke="none">
<path d="M4485 3289 c-148 -8 -193 -14 -250 -34 l-70 -24 60 0 59 -1 -54 -55
c-29 -30 -56 -52 -59 -50 -2 3 -13 -3 -24 -12 -15 -13 -18 -14 -13 -3 4 8 -5
2 -20 -15 -16 -17 -25 -22 -21 -12 6 17 6 17 -18 0 -13 -10 -25 -21 -25 -24 0
-4 62 -10 138 -14 137 -7 165 -15 156 -40 -8 -19 34 -26 162 -26 116 -1 144
-5 144 -19 0 -5 -26 -52 -57 -104 l-58 -95 -105 -1 c-161 -2 -206 -10 -196
-35 5 -13 -18 -15 -162 -16 -92 0 -174 -2 -182 -3 -8 -2 -94 -7 -190 -11 -275
-11 -331 -24 -90 -21 414 7 1246 -30 1465 -65 72 -11 168 -31 215 -44 303 -84
523 -113 660 -85 25 5 178 18 340 30 344 24 631 56 675 75 42 17 68 62 99 169
38 130 36 147 -21 189 -205 150 -522 238 -953 266 -80 6 -172 17 -205 25 -32
9 -91 15 -130 15 -38 -1 -115 3 -170 9 -267 30 -820 46 -1100 31z m20 -79 c3
-6 -4 -10 -17 -10 -18 0 -20 2 -8 10 19 12 18 12 25 0z m1520 -147 c-10 -23
-35 -133 -35 -155 0 -13 14 -18 68 -23 74 -8 206 -35 199 -41 -2 -2 -43 3 -91
11 -74 13 -189 27 -233 28 -7 0 -10 4 -8 7 3 4 -29 20 -70 35 -41 15 -75 30
-75 34 0 4 23 33 51 64 l51 57 75 0 c68 0 74 -2 68 -17z m586 -125 c43 -21 84
-47 92 -56 8 -9 18 -47 22 -84 l7 -68 -121 0 c-114 0 -121 1 -135 23 -17 25
-116 263 -116 277 0 14 162 -45 251 -92z m-1843 -105 c-3 -72 -4 -77 -28 -83
-77 -20 -80 -21 -80 -5 0 19 90 165 102 165 5 0 8 -35 6 -77z m1452 -108 c7
-9 8 -15 2 -15 -5 0 -12 7 -16 15 -3 8 -4 15 -2 15 2 0 9 -7 16 -15z m130 -25
c0 -5 -11 -10 -24 -10 -14 0 -28 5 -31 10 -4 6 7 10 24 10 17 0 31 -4 31 -10z
m-147 -117 c-7 -2 -21 -2 -30 0 -10 3 -4 5 12 5 17 0 24 -2 18 -5z m147 -3 c0
-5 -3 -10 -7 -10 -5 0 -18 -3 -30 -6 -13 -4 -23 -2 -23 4 0 10 19 18 48 21 6
0 12 -3 12 -9z m-212 -7 c-10 -2 -26 -2 -35 0 -10 3 -2 5 17 5 19 0 27 -2 18
-5z"/>
<path d="M3764 3180 c-53 -23 -216 -124 -403 -249 -111 -75 -151 -96 -155 -86
-6 18 -40 19 -87 4 -33 -11 -99 -72 -99 -93 0 -6 -11 -32 -24 -58 -21 -44 -22
-48 -5 -48 10 0 21 -4 24 -10 4 -6 58 -9 133 -9 70 1 116 4 102 6 -14 2 -34 8
-45 13 -11 5 -42 11 -70 12 l-50 3 195 146 c107 81 275 199 373 263 97 64 177
118 177 121 0 9 -25 4 -66 -15z m-666 -420 c-7 -11 -19 -22 -28 -25 -8 -4 -4
5 9 19 29 31 36 33 19 6z"/>
<path d="M3368 2673 c7 -3 16 -2 19 1 4 3 -2 6 -13 5 -11 0 -14 -3 -6 -6z"/>
<path d="M4620 2479 c134 -38 284 -111 389 -189 46 -34 86 -58 89 -55 8 8 -25
36 -130 111 -134 96 -308 165 -409 163 -39 0 -32 -4 61 -30z"/>
<path d="M8152 2340 c0 -8 3 -24 7 -34 7 -18 8 -18 14 -3 3 9 2 17 -3 17 -5 0
-11 8 -13 18 -3 11 -5 12 -5 2z"/>
<path d="M6813 2229 c7 -12 19 -14 47 -9 21 4 55 1 80 -6 32 -9 48 -10 57 -2
32 26 12 33 -91 33 -92 0 -102 -2 -93 -16z"/>
<path d="M7142 2235 c-7 -11 -35 -67 -63 -125 -66 -136 -123 -228 -233 -375
-110 -147 -102 -135 -110 -162 -13 -42 19 -26 87 43 127 129 250 332 312 517
28 83 32 142 7 102z"/>
<path d="M7709 2157 c-83 -31 -163 -103 -213 -190 -19 -33 -29 -40 -94 -59
-40 -12 -70 -23 -68 -25 2 -3 28 3 57 11 29 9 56 16 60 16 5 0 -5 -30 -20 -67
-33 -77 -66 -187 -76 -250 -4 -24 -10 -43 -15 -43 -4 0 -5 -21 -2 -47 5 -44 4
-47 -12 -34 -9 8 -19 11 -23 7 -3 -3 -1 -6 5 -6 17 0 15 -27 -5 -50 -11 -13
-21 -16 -29 -10 -8 7 -16 5 -25 -7 -8 -9 -9 -14 -2 -10 6 4 15 3 18 -3 4 -6 3
-10 -2 -9 -4 1 -21 -3 -38 -10 -108 -46 -461 -146 -905 -256 -401 -100 -539
-126 -658 -124 l-87 2 115 8 c138 9 228 27 624 124 419 103 593 152 650 183
71 39 172 180 147 205 -8 8 -11 6 -11 -6 0 -9 -7 -17 -15 -17 -8 0 -15 4 -15
9 0 5 -7 12 -16 15 -8 3 -12 2 -9 -3 3 -5 -4 -16 -16 -24 -14 -10 -16 -16 -8
-19 9 -3 7 -7 -5 -11 -9 -4 -15 -3 -12 1 2 4 1 14 -3 21 -6 9 -10 5 -13 -14
-4 -21 -1 -28 16 -35 11 -4 23 -5 26 -1 3 3 11 7 18 8 25 6 11 -21 -35 -67
-41 -41 -62 -52 -143 -78 -117 -37 -670 -176 -676 -169 -2 2 4 25 15 51 28 64
16 58 -15 -8 l-26 -55 -106 -25 c-171 -40 -270 -57 -378 -63 l-100 -6 -19 97
c-10 53 -19 95 -21 93 -2 -2 3 -48 11 -103 8 -54 15 -103 15 -107 0 -8 -37 -5
-215 19 -134 19 -215 39 -226 56 -16 25 20 88 51 88 9 0 20 4 26 9 14 14 231
122 253 126 11 2 28 8 39 14 18 9 20 6 28 -42 l8 -52 4 58 c2 43 7 57 19 57 8
0 52 11 97 24 44 14 95 27 111 29 17 3 42 10 58 16 15 6 38 13 50 16 19 4 230
49 277 59 8 2 22 6 30 9 20 8 164 37 219 44 24 3 70 16 102 28 33 13 59 21 59
17 0 -3 6 3 14 14 8 10 18 16 21 12 11 -11 82 29 82 46 0 8 -4 13 -8 11 -9 -6
-30 20 -22 28 3 4 -2 16 -12 27 -15 17 -16 20 -3 15 9 -4 19 -1 24 6 5 9 2 10
-9 6 -10 -4 -17 -1 -17 6 0 8 -3 9 -8 1 -12 -17 -42 -25 -36 -10 3 8 1 17 -5
21 -10 5 -15 -6 -12 -27 1 -11 -29 -2 -42 12 -10 12 -9 12 6 1 9 -8 17 -9 17
-3 0 16 -33 24 -42 10 -6 -10 -8 -10 -8 0 0 6 -5 12 -11 12 -5 0 -7 -6 -3 -12
5 -10 4 -10 -6 -1 -15 14 -42 6 -33 -11 3 -6 1 -6 -8 2 -14 13 -43 17 -36 5 3
-5 -6 -8 -19 -8 -14 0 -24 6 -25 15 0 10 -3 8 -9 -5 -5 -11 -9 -14 -9 -7 -1 6
-6 12 -12 12 -5 0 -8 -4 -5 -9 7 -11 -13 -9 -32 3 -8 5 -18 4 -24 -2 -6 -6
-17 -8 -26 -5 -10 4 -13 2 -8 -5 4 -7 3 -12 -3 -12 -5 0 -13 4 -16 10 -4 6
-19 4 -41 -5 -19 -8 -32 -10 -29 -5 3 6 1 10 -4 10 -6 0 -11 -5 -11 -11 0 -5
-5 -7 -10 -4 -6 4 -7 12 -3 18 4 7 -1 5 -11 -3 -10 -8 -25 -15 -34 -16 -8 -2
-19 -9 -23 -16 -8 -12 -13 -5 -10 14 0 4 -11 0 -26 -7 -15 -8 -30 -12 -35 -9
-4 3 -8 1 -8 -4 0 -5 -14 -7 -31 -4 -21 3 -34 -1 -43 -13 -10 -14 -15 -15 -21
-5 -6 9 -4 11 5 5 9 -6 11 -4 5 5 -6 10 -11 9 -21 -4 -9 -13 -13 -14 -17 -4
-3 8 -6 6 -6 -5 -1 -11 -6 -15 -12 -11 -6 3 -15 0 -20 -7 -6 -10 -9 -10 -9 -2
0 9 -7 10 -22 4 -13 -4 -31 -7 -41 -5 -12 1 -17 -2 -13 -11 5 -13 -17 -15 -30
-3 -3 4 -22 -3 -42 -15 -20 -12 -33 -16 -29 -10 4 6 3 14 -3 18 -5 3 -10 0
-10 -7 0 -8 -9 -14 -19 -14 -19 0 -19 7 -14 141 4 86 2 148 -4 159 -7 13 -12
-28 -16 -140 -3 -100 -9 -160 -16 -162 -6 -2 -8 -9 -4 -15 4 -7 -1 -6 -10 2
-14 11 -17 11 -17 -1 0 -7 -9 -20 -20 -28 -11 -8 -20 -20 -20 -28 0 -7 -5 -10
-11 -7 -7 5 -5 13 5 24 20 22 20 28 1 28 -8 0 -12 -4 -9 -9 4 -5 -2 -16 -12
-23 -11 -9 -14 -14 -6 -15 6 0 12 -5 12 -11 0 -5 -4 -8 -9 -5 -5 3 -11 -1 -15
-9 -3 -8 -10 -15 -16 -15 -6 0 -9 4 -6 8 3 5 -1 9 -8 9 -9 0 -12 -7 -8 -16 5
-13 3 -14 -10 -3 -13 10 -15 9 -13 -13 2 -14 -1 -22 -6 -19 -6 3 -17 0 -26 -8
-14 -11 -16 -11 -9 2 4 9 1 8 -7 -2 -8 -10 -17 -18 -21 -18 -9 0 -3 24 9 33 6
5 4 7 -4 5 -8 -2 -15 -12 -17 -23 -3 -20 -23 -37 -36 -29 -4 3 -16 0 -25 -6
-16 -10 -15 -10 4 -5 12 3 24 1 29 -7 4 -7 3 -10 -1 -5 -5 4 -16 0 -26 -9 -9
-8 -26 -16 -37 -17 -11 0 -18 -5 -16 -9 3 -4 -2 -8 -10 -8 -9 0 -16 -4 -16
-10 0 -5 -5 -10 -11 -10 -5 0 -7 4 -4 10 3 5 -1 10 -10 10 -11 0 -15 -5 -12
-14 9 -23 -14 -38 -30 -18 -8 9 -12 11 -8 5 4 -8 0 -13 -9 -13 -15 0 -21 22
-17 60 1 9 -1 11 -6 5 -21 -26 -35 -15 -31 24 2 22 0 37 -3 35 -4 -2 -10 16
-14 41 -10 67 -48 174 -96 267 -33 63 -64 104 -130 171 -78 78 -86 88 -69 97
38 21 283 65 640 116 102 14 187 28 190 31 8 9 -109 -6 -405 -52 -306 -47
-408 -68 -441 -90 -19 -12 -28 -11 -82 11 -121 49 -241 42 -370 -22 -65 -32
-78 -35 -111 -26 -27 6 -104 3 -263 -11 l-226 -21 -33 35 c-56 59 -138 74
-389 73 -116 -1 -270 -9 -355 -19 -82 -9 -176 -19 -208 -22 -31 -3 -57 -10
-57 -14 0 -5 -10 -9 -22 -9 -24 0 -165 -64 -348 -159 -69 -36 -150 -77 -180
-93 -36 -18 -96 -35 -175 -48 -146 -25 -213 -47 -221 -73 -3 -10 -3 -21 -1
-24 13 -13 1052 68 1447 113 177 20 446 60 461 69 12 8 69 124 69 142 0 14 29
18 244 38 187 18 216 18 250 5 25 -9 25 -9 -38 -72 -135 -135 -259 -375 -312
-603 l-6 -30 -10 28 c-5 15 -14 25 -18 22 -5 -3 -7 4 -5 15 3 18 1 20 -18 14
-12 -4 -33 -8 -47 -8 -14 0 -28 -4 -32 -10 -5 -8 -8 -7 -8 1 0 6 -13 18 -29
26 -26 13 -31 12 -52 -5 -13 -11 -18 -16 -10 -12 9 5 12 3 7 -5 -4 -6 -15 -10
-24 -9 -9 2 -16 -2 -15 -9 3 -14 -23 -11 -39 5 -21 21 -35 14 -32 -15 2 -16 1
-22 -2 -15 -3 6 -10 12 -15 12 -6 0 -8 -4 -5 -8 3 -5 -1 -9 -8 -9 -8 0 -12 7
-9 16 3 12 2 12 -7 -2 -6 -9 -8 -23 -4 -30 5 -7 0 -5 -11 3 -10 8 -20 14 -22
13 -9 -7 -24 -2 -19 6 3 5 -1 12 -10 15 -22 8 -24 8 -24 -8 0 -8 -4 -16 -9
-18 -5 -1 -44 -48 -86 -103 -43 -55 -92 -115 -109 -134 -45 -49 -115 -91 -152
-91 -30 0 -32 2 -33 38 -2 41 -7 86 -11 90 -4 3 -7 19 -9 38 0 8 -5 13 -10 9
-5 -3 -12 4 -16 15 -5 17 -15 23 -35 22 -12 -1 -8 58 5 68 19 16 19 34 0 50
-18 15 -45 -2 -45 -30 0 -19 -26 -35 -35 -21 -2 5 -16 11 -30 13 -25 5 -25 5
-9 -21 9 -14 -23 13 -72 62 -105 103 -146 132 -219 157 -66 23 -252 39 -241
21 4 -7 39 -11 89 -12 45 0 91 -4 102 -8 24 -10 -54 -15 -545 -37 -201 -9
-368 -19 -372 -23 -4 -3 6 -21 22 -38 28 -29 29 -33 14 -48 -9 -9 -20 -13 -24
-8 -5 4 -20 47 -35 95 -29 97 -60 142 -108 157 -79 25 -486 32 -514 10 -12
-11 -40 -65 -56 -111 -5 -15 -11 -15 -69 -2 -94 21 -250 66 -272 77 -19 9 -19
10 -1 23 22 16 0 20 -25 4 -25 -16 -24 -172 3 -342 l23 -147 -34 -66 -33 -67
22 -19 c20 -17 37 -18 84 -4 6 1 48 -11 95 -26 47 -17 67 -26 45 -23 -22 4
-83 8 -135 9 -52 1 -103 5 -112 9 -10 5 -18 4 -18 -1 0 -5 25 -23 56 -41 51
-29 63 -32 143 -32 48 0 91 4 97 10 17 17 54 0 54 -26 0 -35 81 -73 162 -77
61 -2 63 -2 78 31 l16 32 44 -45 c39 -40 153 -106 225 -131 l20 -7 -20 -4
c-104 -18 -193 -37 -207 -45 -14 -7 -15 -13 -7 -32 19 -41 121 -62 429 -86 63
-5 219 -14 345 -19 127 -5 253 -12 280 -15 28 -3 109 -8 180 -11 72 -3 153 -8
180 -10 105 -8 334 -15 690 -20 382 -5 688 -14 740 -20 95 -11 290 -20 420
-18 170 3 262 14 343 44 69 25 418 112 502 125 14 2 50 8 80 13 30 6 93 15
140 20 47 6 103 13 125 16 22 3 81 10 130 15 50 5 131 15 180 21 105 12 215
24 375 38 63 6 131 13 150 15 19 3 91 10 160 16 142 12 267 24 420 41 58 6
283 15 500 20 392 8 459 14 518 47 13 8 21 20 18 27 -2 7 20 44 50 81 54 68
106 176 119 246 9 47 31 66 140 126 84 45 90 51 93 83 4 56 -30 173 -53 183
-19 8 -20 13 -11 78 7 54 5 87 -7 146 -9 43 -18 97 -22 122 -3 25 -10 54 -15
65 -4 11 -16 52 -26 90 -18 74 -31 98 -45 89 -15 -9 -10 -66 16 -159 14 -49
25 -101 24 -115 0 -14 -9 2 -20 40 -44 149 -137 279 -234 325 -50 24 -139 29
-186 12z m-4181 -200 l23 -13 -21 -19 c-15 -13 -17 -21 -9 -31 8 -10 2 -15
-29 -23 -22 -6 -45 -18 -52 -26 -9 -10 -32 -15 -77 -15 -56 0 -74 -5 -130 -37
-79 -44 -111 -51 -273 -63 -69 -6 -177 -14 -240 -20 -63 -5 -162 -12 -220 -14
l-105 -5 135 14 c74 8 192 19 262 25 71 6 151 15 179 20 29 6 68 10 88 10 37
0 133 39 146 59 8 14 -61 8 -165 -14 -36 -8 -148 -25 -250 -39 -102 -15 -228
-33 -280 -41 -52 -9 -122 -19 -155 -24 l-60 -9 50 -2 c40 -2 31 -4 -40 -11
-49 -4 -137 -12 -195 -18 -167 -17 -264 -21 -278 -12 -9 5 1 10 30 15 24 4 90
18 148 31 269 63 420 89 570 100 46 4 88 9 93 12 6 3 24 6 41 5 17 0 34 4 38
11 4 7 31 10 75 9 47 -2 78 2 98 12 17 9 38 16 48 16 10 0 25 7 33 15 18 17
34 20 34 5 0 -5 18 -10 40 -10 22 0 40 5 40 10 0 6 15 10 33 10 19 0 42 8 55
20 22 21 42 26 42 11 0 -5 24 -3 53 6 152 43 192 48 225 30z m4677 -286 c2
-28 0 -49 -4 -46 -11 6 -23 84 -15 96 10 16 14 5 19 -50z m-1540 -39 c-3 -3
-11 0 -18 7 -9 10 -8 11 6 5 10 -3 15 -9 12 -12z m905 -82 c0 -5 -5 -10 -11
-10 -5 0 -7 5 -4 10 3 6 8 10 11 10 2 0 4 -4 4 -10z m-40 -30 c0 -5 -5 -10
-11 -10 -5 0 -7 5 -4 10 3 6 8 10 11 10 2 0 4 -4 4 -10z m124 -115 c-4 -8 -10
-12 -15 -9 -11 6 -2 24 11 24 5 0 7 -7 4 -15z m21 -25 c-3 -5 -11 -10 -16 -10
-6 0 -7 5 -4 10 3 6 11 10 16 10 6 0 7 -4 4 -10z m6 -33 c-10 -9 -11 -8 -5 6
3 10 9 15 12 12 3 -3 0 -11 -7 -18z m-4111 -7 c0 -5 -5 -10 -11 -10 -5 0 -7 5
-4 10 3 6 8 10 11 10 2 0 4 -4 4 -10z m-2850 -40 c0 -5 -4 -10 -10 -10 -5 0
-10 5 -10 10 0 6 5 10 10 10 6 0 10 -4 10 -10z m846 -35 c10 -20 9 -27 -3 -37
-12 -10 -18 -9 -29 7 -12 16 -18 18 -34 7 -25 -16 -27 3 -3 30 23 26 56 23 69
-7z m2555 -58 c-16 -16 -20 -5 -8 23 9 22 11 23 14 6 3 -10 0 -23 -6 -29z
m-2600 10 c-13 -13 -26 -3 -16 12 3 6 11 8 17 5 6 -4 6 -10 -1 -17z m2809 -37
c0 -5 -6 -7 -14 -4 -7 3 -21 -2 -30 -11 -9 -9 -16 -13 -16 -8 0 15 23 33 42
33 10 0 18 -4 18 -10z m-8 -45 c6 -29 5 -30 -16 -9 -9 8 -16 11 -16 5 0 -6 -6
-11 -12 -11 -7 1 -2 10 11 20 29 25 28 25 33 -5z m-17 -35 c-3 -5 -11 -10 -16
-10 -6 0 -7 5 -4 10 3 6 11 10 16 10 6 0 7 -4 4 -10z m36 -32 c-10 -11 -11
-10 -5 5 5 14 2 16 -12 11 -16 -5 -16 -4 -4 5 20 14 39 -4 21 -21z m-2551
-128 c0 -50 0 -51 43 -69 89 -38 279 -53 772 -61 129 -2 118 -12 -40 -37 -82
-12 -159 -14 -429 -9 -182 3 -396 9 -477 13 l-148 6 19 25 c11 14 20 30 20 36
0 7 14 23 32 37 30 23 184 106 201 108 4 1 7 -22 7 -49z m-1236 -15 c46 -11
77 -13 105 -6 59 13 84 -25 42 -63 -18 -17 -23 -16 -103 5 -124 33 -152 47
-138 64 15 18 14 18 94 0z m6516 -35 l19 -38 -55 -7 c-57 -7 -608 4 -600 12 7
7 600 81 609 76 4 -2 16 -22 27 -43z m-4947 -216 c33 -5 37 -9 37 -35 l0 -29
-124 0 c-160 0 -167 3 -124 47 33 34 33 34 103 28 39 -3 87 -8 108 -11z"/>
<path d="M2098 2023 c7 -3 16 -2 19 1 4 3 -2 6 -13 5 -11 0 -14 -3 -6 -6z"/>
<path d="M1153 1903 c-23 -9 -14 -20 17 -20 18 0 29 5 27 11 -4 13 -26 17 -44
9z"/>
<path d="M1215 1899 c-4 -6 -5 -13 -2 -16 8 -7 47 7 47 18 0 13 -37 11 -45 -2z"/>
<path d="M1274 1901 c12 -19 -2 -46 -33 -64 -41 -24 -53 -21 -13 4 33 22 45
46 16 35 -9 -3 -23 -6 -32 -6 -9 0 -30 -12 -46 -26 -23 -21 -26 -28 -15 -35
10 -6 3 -9 -21 -9 -20 0 -46 7 -58 16 -22 15 -29 9 -14 -12 35 -54 249 16 240
78 -2 12 -9 23 -17 26 -8 3 -11 0 -7 -7z"/>
<path d="M1085 1860 c-15 -16 -15 -22 -5 -35 16 -19 40 -19 40 0 0 8 9 15 19
15 21 0 37 17 27 27 -3 3 -13 0 -23 -8 -9 -8 -14 -9 -10 -3 4 7 0 15 -9 18
-21 8 -18 9 -39 -14z"/>
<path d="M3875 1840 c-3 -5 -2 -10 4 -10 5 0 13 5 16 10 3 6 2 10 -4 10 -5 0
-13 -4 -16 -10z"/>
<path d="M3842 1788 c-74 -125 -152 -299 -152 -339 0 -14 7 -19 28 -19 26 0
29 6 60 98 19 53 51 133 72 177 21 44 36 82 34 85 -3 2 -10 -2 -15 -10 -8 -11
-10 -8 -6 13 5 35 3 34 -21 -5z"/>
<path d="M681 1774 c-1 -26 6 -37 37 -59 l37 -28 -32 34 c-17 19 -33 45 -36
59 -4 22 -4 21 -6 -6z"/>
<path d="M3500 1748 c-14 -5 -59 -14 -100 -19 -88 -11 -411 -48 -489 -56 l-54
-6 38 -19 c21 -11 60 -42 88 -68 28 -27 74 -61 104 -76 60 -32 60 -33 49 -94
-4 -25 -3 -31 4 -20 7 12 10 8 10 -15 0 -16 11 -43 24 -59 l24 -29 80 101 c66
82 227 308 256 360 8 14 0 14 -34 0z"/>
<path d="M565 1740 c3 -5 1 -10 -6 -10 -44 0 92 -78 166 -96 43 -10 20 9 -36
29 -25 10 -61 33 -79 52 -32 33 -59 48 -45 25z"/>
<path d="M6657 1689 c-3 -12 0 -19 8 -19 20 0 25 13 10 27 -10 9 -14 8 -18 -8z"/>
<path d="M7155 1599 c-4 -6 -5 -12 -2 -15 2 -3 7 2 10 11 7 17 1 20 -8 4z"/>
<path d="M7132 1550 c-7 -11 -12 -25 -12 -32 1 -7 8 0 16 15 18 33 14 46 -4
17z"/>
<path d="M7193 1563 c-7 -2 -9 -12 -6 -21 6 -14 4 -15 -9 -4 -18 15 -21 12
-62 -66 l-28 -53 40 3 c22 2 38 6 35 11 -8 13 15 7 31 -9 15 -15 20 -12 17 11
-1 6 6 1 14 -9 8 -11 16 -17 16 -13 1 4 2 11 3 16 2 14 16 26 16 14 0 -5 6
-10 13 -10 13 0 16 41 4 54 -12 11 -8 25 6 17 6 -4 4 2 -7 14 -10 12 -24 19
-30 15 -6 -3 -5 0 2 8 6 7 12 18 12 24 0 5 -5 3 -10 -5 -6 -10 -10 -11 -10 -2
0 6 -5 12 -11 12 -5 0 -8 -4 -4 -9 3 -5 1 -12 -4 -15 -5 -4 -11 0 -13 7 -2 8
-8 12 -15 10z"/>
<path d="M6705 1530 c-16 -7 -17 -9 -3 -9 9 -1 20 4 23 9 7 11 7 11 -20 0z"/>
<path d="M6960 1481 c0 -5 5 -13 10 -16 6 -3 10 -2 10 4 0 5 -4 13 -10 16 -5
3 -10 2 -10 -4z"/>
<path d="M6910 1458 c0 -9 5 -20 10 -23 13 -8 13 5 0 25 -8 13 -10 13 -10 -2z"/>
<path d="M6938 1457 c7 -8 8 -18 4 -22 -4 -5 -1 -5 6 -1 17 10 15 23 -4 30
-13 5 -14 4 -6 -7z"/>
<path d="M3551 1416 c-17 -20 -2 -48 23 -44 24 3 34 37 14 49 -18 12 -24 11
-37 -5z m29 -16 c0 -5 -4 -10 -10 -10 -5 0 -10 5 -10 10 0 6 5 10 10 10 6 0
10 -4 10 -10z"/>
<path d="M3751 1304 c0 -11 3 -14 6 -6 3 7 2 16 -1 19 -3 4 -6 -2 -5 -13z"/>
</g>
</svg>
