<?xml version="1.0" standalone="no"?>
<!DOCTYPE svg PUBLIC "-//W3C//DTD SVG 20010904//EN"
 "http://www.w3.org/TR/2001/REC-SVG-20010904/DTD/svg10.dtd">
<svg version="1.0" xmlns="http://www.w3.org/2000/svg"
 width="900.000000pt" height="800.000000pt" viewBox="0 0 900.000000 800.000000"
 preserveAspectRatio="xMidYMid meet">

<g transform="translate(0.000000,800.000000) scale(0.100000,-0.100000)"
fill="#000000" stroke="none">
<path d="M4120 5420 c36 -5 130 -13 210 -19 452 -35 823 -137 1223 -337 182
-91 369 -220 502 -344 38 -36 44 -38 125 -44 281 -23 675 -77 925 -127 149
-29 563 -133 679 -170 34 -10 78 -19 98 -19 56 0 138 -20 189 -46 92 -46 183
-177 211 -303 8 -40 25 -72 55 -109 117 -144 145 -286 104 -522 -10 -58 -17
-107 -15 -108 6 -8 46 141 61 232 29 171 -3 323 -86 411 -30 32 -40 53 -50
103 -21 108 -51 171 -112 236 -75 80 -145 121 -249 146 -47 12 -125 34 -175
50 -174 56 -647 140 -1300 231 l-370 51 -80 58 c-471 337 -836 494 -1384 596
-132 24 -401 45 -556 42 l-70 -1 65 -7z"/>
<path d="M2695 5413 c-62 -13 -229 -58 -343 -93 -215 -66 -376 -144 -607 -296
-115 -75 -389 -277 -400 -293 -3 -6 45 25 107 69 169 118 332 214 543 320 277
139 488 206 730 230 107 11 114 10 190 -14 55 -18 98 -40 136 -70 67 -53 167
-175 231 -283 64 -108 155 -205 216 -231 52 -23 155 -42 212 -41 l35 1 -35 10
c-147 40 -142 37 -225 122 -61 63 -91 104 -129 176 -57 112 -97 168 -163 231
-127 122 -212 159 -378 163 -55 2 -109 1 -120 -1z"/>
<path d="M4735 5236 c109 -40 317 -144 400 -198 89 -60 179 -135 224 -188 36
-42 38 -49 26 -67 -12 -17 -70 -39 -162 -60 -18 -5 96 -8 255 -9 207 -1 312
-5 377 -16 50 -8 91 -14 93 -13 5 5 -180 141 -278 204 -119 77 -404 219 -533
265 -139 51 -411 117 -472 115 -11 0 21 -15 70 -33z"/>
<path d="M2751 4934 c-41 -7 -93 -20 -115 -29 -43 -17 -100 -55 -93 -61 2 -2
51 3 108 12 165 25 307 3 364 -56 25 -26 30 -40 33 -96 4 -52 7 -64 19 -60 8
3 24 6 35 6 11 0 35 15 54 34 30 30 34 40 34 85 0 64 -20 114 -55 137 -64 42
-239 55 -384 28z"/>
<path d="M3935 4669 c-77 -3 -167 -8 -200 -9 -33 -2 62 -7 210 -11 367 -9 613
-42 1026 -135 189 -42 388 -101 529 -157 239 -94 518 -253 743 -424 53 -40 97
-71 97 -68 0 26 -187 263 -255 323 -185 162 -607 345 -970 421 -293 60 -734
83 -1180 60z"/>
<path d="M5375 4629 c561 -44 852 -96 1360 -244 388 -113 608 -192 953 -343
209 -92 212 -90 56 57 -101 96 -185 157 -340 247 -337 196 -959 296 -1809 293
-242 -1 -296 -4 -220 -10z"/>
<path d="M4617 4423 c-37 -4 -34 -7 110 -77 164 -81 286 -155 382 -236 73 -61
72 -56 -15 57 -69 87 -150 150 -235 180 -27 10 -49 21 -49 24 0 16 414 -51
531 -85 219 -64 480 -197 714 -366 113 -82 99 -64 -40 51 -137 112 -242 179
-398 254 -256 122 -421 172 -646 195 -99 10 -273 11 -354 3z"/>
<path d="M1305 4414 c-296 -14 -492 -53 -640 -127 -60 -29 -159 -96 -153 -103
2 -2 75 15 162 36 215 53 267 60 513 67 525 14 1029 -52 1668 -219 184 -48
648 -186 769 -227 33 -12 64 -21 70 -21 6 0 31 39 55 86 79 156 167 251 285
311 110 56 211 66 318 33 84 -26 143 -66 225 -154 81 -86 142 -190 186 -314
l33 -91 18 52 c26 75 77 148 124 177 23 14 42 30 42 35 0 6 -39 52 -86 103
-103 111 -175 157 -328 207 -228 77 -452 59 -764 -60 l-117 -44 -160 30 c-499
93 -1012 165 -1460 204 -171 15 -610 26 -760 19z"/>
<path d="M7939 4207 c76 -97 103 -164 111 -272 l6 -90 7 75 c10 87 -2 154 -39
219 -13 24 -22 46 -20 48 2 3 23 -12 46 -33 44 -40 85 -113 115 -202 9 -29 19
-52 21 -50 5 5 -42 178 -59 220 -29 69 -110 126 -200 142 l-38 7 50 -64z"/>
<path d="M841 4179 c-43 -17 -99 -69 -155 -144 -31 -40 -56 -76 -56 -79 0 -3
24 9 52 26 72 45 138 45 223 1 118 -61 201 -184 296 -433 35 -93 35 -84 4 77
-26 128 -90 334 -126 406 -42 82 -135 158 -191 156 -13 0 -34 -5 -47 -10z"/>
<path d="M4239 3899 c-155 -22 -297 -123 -388 -276 -174 -297 -111 -724 137
-929 36 -29 67 -52 69 -50 2 2 -10 24 -27 50 -96 142 -134 367 -95 564 9 46
34 115 62 172 37 76 61 110 122 171 82 83 146 120 244 145 78 21 201 14 274
-14 65 -25 61 -11 -16 52 -112 92 -249 133 -382 115z"/>
<path d="M5260 3887 c0 -3 120 -35 268 -71 704 -171 1097 -234 1528 -243 375
-8 697 21 874 78 67 22 324 148 317 155 -2 2 -24 -7 -48 -20 -263 -146 -878
-175 -1729 -80 -377 42 -1023 140 -1187 181 -13 3 -23 3 -23 0z"/>
<path d="M781 3809 c-49 -15 -133 -104 -169 -179 -152 -319 -104 -839 95
-1030 20 -19 34 -30 32 -25 -3 6 -21 44 -41 85 -158 334 -83 907 137 1035 47
28 99 36 150 22 l30 -9 -30 32 c-62 65 -134 90 -204 69z"/>
<path d="M835 3487 c-140 -140 -104 -787 44 -787 76 0 131 172 131 412 0 192
-38 341 -98 388 -33 26 -38 26 -77 -13z"/>
<path d="M4427 3509 c-191 -45 -293 -297 -202 -497 111 -243 409 -243 520 0
89 195 -4 438 -189 493 -55 17 -73 17 -129 4z"/>
<path d="M5790 3418 c124 -53 172 -81 227 -132 79 -73 113 -141 120 -242 6
-72 6 -73 32 -69 14 2 147 10 295 16 l269 12 -89 22 c-129 31 -189 65 -305
172 -177 162 -264 207 -426 223 -54 5 -109 9 -123 9 l-25 0 25 -11z"/>
<path d="M8204 3401 c-43 -26 -94 -89 -138 -169 -93 -171 -171 -236 -345 -288
-37 -11 6 -13 101 -5 170 15 223 56 309 239 27 59 64 122 82 140 33 35 123 68
158 59 40 -11 17 12 -28 27 -61 21 -101 20 -139 -3z"/>
<path d="M1610 3254 c774 -86 1382 -177 1705 -257 72 -18 119 -33 105 -35 -14
-1 -115 2 -225 6 -292 13 -1111 14 -1336 2 -196 -10 -400 -31 -519 -53 -52
-10 69 -12 650 -12 717 0 899 -6 1230 -41 204 -21 346 -52 461 -98 9 -4 -23
69 -78 179 -52 102 -99 188 -106 190 -7 2 -329 25 -717 50 -388 25 -831 54
-985 65 -317 23 -366 24 -185 4z"/>
<path d="M4860 3023 c0 -78 15 -127 51 -168 23 -26 35 -33 47 -26 33 17 279
81 369 95 50 8 176 20 280 27 103 6 189 12 191 14 12 11 -261 30 -433 30 -201
-1 -213 -2 -290 -28 -44 -15 -89 -27 -101 -27 -27 0 -58 34 -84 93 -12 26 -23
47 -25 47 -3 0 -5 -26 -5 -57z"/>
</g>
</svg>
